<svg width="375" height="812" viewBox="0 0 375 812" fill="none" xmlns="http://www.w3.org/2000/svg">
  <g clip-path="url(#clip0_127_1433)">
    <rect width="375" height="812" fill="url(#paint0_linear_127_1433)"/>
    <g opacity="0.2">
      <rect width="3.46558" height="129.086" rx="1.73279" transform="matrix(0.574187 0.818724 -0.325164 0.945657 332.924 10.701)" fill="url(#paint1_linear_127_1433)"/>
      <rect width="2.59918" height="96.9485" rx="1.29959" transform="matrix(0.574187 0.818724 -0.325164 0.945657 191.151 0)" fill="url(#paint2_linear_127_1433)"/>
      <rect width="3.89877" height="37.4939" rx="1.94939" transform="matrix(0.574187 0.818724 -0.325164 0.945657 88.8182 113.624)" fill="url(#paint3_linear_127_1433)"/>
      <rect opacity="0.312783" width="2.12633" height="128.004" rx="1.06317" transform="matrix(0.559984 0.828503 -0.336035 0.941849 224.959 466.364)" fill="url(#paint4_linear_127_1433)"/>
      <rect opacity="0.312783" width="2.12633" height="128.004" rx="1.06317" transform="matrix(0.559984 0.828503 -0.336035 0.941849 158.491 646.299)" fill="url(#paint5_linear_127_1433)"/>
      <rect opacity="0.312783" width="2.12633" height="128.004" rx="1.06317" transform="matrix(0.559984 0.828503 -0.336035 0.941849 102.316 515.21)" fill="url(#paint6_linear_127_1433)"/>
      <rect width="2.12633" height="53.1139" rx="1.06317" transform="matrix(0.559984 0.828503 -0.336035 0.941849 241.052 447.813)" fill="url(#paint7_linear_127_1433)"/>
      <rect opacity="0.169044" width="3.00502" height="39.8354" rx="1.50251" transform="matrix(0.559984 0.828503 -0.336035 0.941849 366.911 177.416)" fill="url(#paint8_linear_127_1433)"/>
      <rect opacity="0.312783" width="3.50951" height="128.004" rx="1.75475" transform="matrix(0.559984 0.828503 -0.336035 0.941849 183.495 499.754)" fill="url(#paint9_linear_127_1433)"/>
      <rect width="2.12633" height="128.004" rx="1.06317" transform="matrix(0.559984 0.828503 -0.336035 0.941849 303.637 285.803)" fill="url(#paint10_linear_127_1433)"/>
      <rect opacity="0.143965" width="5.26426" height="128.004" rx="2.63213" transform="matrix(0.559984 0.828503 -0.336035 0.941849 313.418 285.803)" fill="url(#paint11_linear_127_1433)"/>
      <rect opacity="0.312783" width="2.12633" height="128.004" rx="1.06317" transform="matrix(-0.559984 -0.828503 0.336035 -0.941849 90.4072 367.274)" fill="url(#paint12_linear_127_1433)"/>
      <rect opacity="0.312783" width="2.12633" height="128.004" rx="1.06317" transform="matrix(-0.559984 -0.828503 0.336035 -0.941849 156.875 187.338)" fill="url(#paint13_linear_127_1433)"/>
      <rect opacity="0.312783" width="2.12633" height="128.004" rx="1.06317" transform="matrix(-0.559984 -0.828503 0.336035 -0.941849 213.05 318.427)" fill="url(#paint14_linear_127_1433)"/>
      <rect width="2.12633" height="53.1139" rx="1.06317" transform="matrix(-0.559984 -0.828503 0.336035 -0.941849 74.314 385.824)" fill="url(#paint15_linear_127_1433)"/>
      <rect opacity="0.312783" width="3.50951" height="128.004" rx="1.75475" transform="matrix(-0.559984 -0.828503 0.336035 -0.941849 131.871 333.883)" fill="url(#paint16_linear_127_1433)"/>
      <rect width="2.59918" height="96.9485" rx="1.29959" transform="matrix(0.574187 0.818724 -0.325164 0.945657 103.612 237.33)" fill="url(#paint17_linear_127_1433)"/>
      <rect width="2.59918" height="96.9485" rx="1.29959" transform="matrix(0.574187 0.818724 -0.325164 0.945657 349.677 480.862)" fill="url(#paint18_linear_127_1433)"/>
      <rect width="2.59918" height="96.9485" rx="1.29959" transform="matrix(0.574187 0.818724 -0.325164 0.945657 373.508 134)" fill="url(#paint19_linear_127_1433)"/>
      <rect width="3.89877" height="37.4939" rx="1.94939" transform="matrix(0.574187 0.818724 -0.325164 0.945657 247.343 594.486)" fill="url(#paint20_linear_127_1433)"/>
      <rect opacity="0.312783" width="2.12633" height="128.004" rx="1.06317" transform="matrix(-0.559984 -0.828503 0.336035 -0.941849 315.4 668.2)" fill="url(#paint21_linear_127_1433)"/>
      <rect width="2.59918" height="96.9485" rx="1.29959" transform="matrix(0.574187 0.818724 -0.325164 0.945657 262.137 718.192)" fill="url(#paint22_linear_127_1433)"/>
      <rect width="2.12633" height="128.004" rx="1.06317" transform="matrix(0.559984 0.828503 -0.336035 0.941849 216.096 523.133)" fill="url(#paint23_linear_127_1433)"/>
      <rect width="2.12633" height="128.004" rx="1.06317" transform="matrix(0.559984 0.828503 -0.336035 0.941849 57.7834 20)" fill="url(#paint24_linear_127_1433)"/>
      <rect opacity="0.312783" width="3.50951" height="128.004" rx="1.75475" transform="matrix(-0.559984 -0.828503 0.336035 -0.941849 44.3312 571.213)" fill="url(#paint25_linear_127_1433)"/>
      <rect width="2.12633" height="128.004" rx="1.06317" transform="matrix(-0.559984 -0.828503 0.336035 -0.941849 11.7289 547.834)" fill="url(#paint26_linear_127_1433)"/>
      <rect opacity="0.143965" width="5.26426" height="128.004" rx="2.63213" transform="matrix(-0.559984 -0.828503 0.336035 -0.941849 1.94812 547.834)" fill="url(#paint27_linear_127_1433)"/>
      <rect width="2.12633" height="128.004" rx="1.06317" transform="matrix(-0.559984 -0.828503 0.336035 -0.941849 40.3107 799.922)" fill="url(#paint28_linear_127_1433)"/>
      <rect opacity="0.143965" width="5.26426" height="128.004" rx="2.63213" transform="matrix(-0.559984 -0.828503 0.336035 -0.941849 30.5299 799.922)" fill="url(#paint29_linear_127_1433)"/>
    </g>
    <g filter="url(#filter0_d_127_1433)">
      <g filter="url(#filter1_d_127_1433)">
        <rect x="21" y="461" width="333" height="62" rx="5" fill="#2C9CDB"/>
      </g>
      <path d="M142.023 497.844C141.391 498.602 140.496 499.191 139.34 499.613C138.184 500.027 136.902 500.234 135.496 500.234C134.02 500.234 132.723 499.914 131.605 499.273C130.496 498.625 129.637 497.688 129.027 496.461C128.426 495.234 128.117 493.793 128.102 492.137V490.977C128.102 489.273 128.387 487.801 128.957 486.559C129.535 485.309 130.363 484.355 131.441 483.699C132.527 483.035 133.797 482.703 135.25 482.703C137.273 482.703 138.855 483.188 139.996 484.156C141.137 485.117 141.812 486.52 142.023 488.363H138.602C138.445 487.387 138.098 486.672 137.559 486.219C137.027 485.766 136.293 485.539 135.355 485.539C134.16 485.539 133.25 485.988 132.625 486.887C132 487.785 131.684 489.121 131.676 490.895V491.984C131.676 493.773 132.016 495.125 132.695 496.039C133.375 496.953 134.371 497.41 135.684 497.41C137.004 497.41 137.945 497.129 138.508 496.566V493.625H135.309V491.035H142.023V497.844ZM150.496 500.234C148.637 500.234 147.121 499.664 145.949 498.523C144.785 497.383 144.203 495.863 144.203 493.965V493.637C144.203 492.363 144.449 491.227 144.941 490.227C145.434 489.219 146.129 488.445 147.027 487.906C147.934 487.359 148.965 487.086 150.121 487.086C151.855 487.086 153.219 487.633 154.211 488.727C155.211 489.82 155.711 491.371 155.711 493.379V494.762H147.637C147.746 495.59 148.074 496.254 148.621 496.754C149.176 497.254 149.875 497.504 150.719 497.504C152.023 497.504 153.043 497.031 153.777 496.086L155.441 497.949C154.934 498.668 154.246 499.23 153.379 499.637C152.512 500.035 151.551 500.234 150.496 500.234ZM150.109 489.828C149.438 489.828 148.891 490.055 148.469 490.508C148.055 490.961 147.789 491.609 147.672 492.453H152.383V492.184C152.367 491.434 152.164 490.855 151.773 490.449C151.383 490.035 150.828 489.828 150.109 489.828ZM161.699 484.203V487.32H163.867V489.805H161.699V496.133C161.699 496.602 161.789 496.938 161.969 497.141C162.148 497.344 162.492 497.445 163 497.445C163.375 497.445 163.707 497.418 163.996 497.363V499.93C163.332 500.133 162.648 500.234 161.945 500.234C159.57 500.234 158.359 499.035 158.312 496.637V489.805H156.461V487.32H158.312V484.203H161.699ZM178.598 496.496C178.598 496.082 178.391 495.758 177.977 495.523C177.57 495.281 176.914 495.066 176.008 494.879C172.992 494.246 171.484 492.965 171.484 491.035C171.484 489.91 171.949 488.973 172.879 488.223C173.816 487.465 175.039 487.086 176.547 487.086C178.156 487.086 179.441 487.465 180.402 488.223C181.371 488.98 181.855 489.965 181.855 491.176H178.469C178.469 490.691 178.312 490.293 178 489.98C177.688 489.66 177.199 489.5 176.535 489.5C175.965 489.5 175.523 489.629 175.211 489.887C174.898 490.145 174.742 490.473 174.742 490.871C174.742 491.246 174.918 491.551 175.27 491.785C175.629 492.012 176.23 492.211 177.074 492.383C177.918 492.547 178.629 492.734 179.207 492.945C180.996 493.602 181.891 494.738 181.891 496.355C181.891 497.512 181.395 498.449 180.402 499.168C179.41 499.879 178.129 500.234 176.559 500.234C175.496 500.234 174.551 500.047 173.723 499.672C172.902 499.289 172.258 498.77 171.789 498.113C171.32 497.449 171.086 496.734 171.086 495.969H174.297C174.328 496.57 174.551 497.031 174.965 497.352C175.379 497.672 175.934 497.832 176.629 497.832C177.277 497.832 177.766 497.711 178.094 497.469C178.43 497.219 178.598 496.895 178.598 496.496ZM188.137 484.203V487.32H190.305V489.805H188.137V496.133C188.137 496.602 188.227 496.938 188.406 497.141C188.586 497.344 188.93 497.445 189.438 497.445C189.812 497.445 190.145 497.418 190.434 497.363V499.93C189.77 500.133 189.086 500.234 188.383 500.234C186.008 500.234 184.797 499.035 184.75 496.637V489.805H182.898V487.32H184.75V484.203H188.137ZM199.539 500C199.383 499.695 199.27 499.316 199.199 498.863C198.379 499.777 197.312 500.234 196 500.234C194.758 500.234 193.727 499.875 192.906 499.156C192.094 498.438 191.688 497.531 191.688 496.438C191.688 495.094 192.184 494.062 193.176 493.344C194.176 492.625 195.617 492.262 197.5 492.254H199.059V491.527C199.059 490.941 198.906 490.473 198.602 490.121C198.305 489.77 197.832 489.594 197.184 489.594C196.613 489.594 196.164 489.73 195.836 490.004C195.516 490.277 195.355 490.652 195.355 491.129H191.969C191.969 490.395 192.195 489.715 192.648 489.09C193.102 488.465 193.742 487.977 194.57 487.625C195.398 487.266 196.328 487.086 197.359 487.086C198.922 487.086 200.16 487.48 201.074 488.27C201.996 489.051 202.457 490.152 202.457 491.574V497.07C202.465 498.273 202.633 499.184 202.961 499.801V500H199.539ZM196.738 497.645C197.238 497.645 197.699 497.535 198.121 497.316C198.543 497.09 198.855 496.789 199.059 496.414V494.234H197.793C196.098 494.234 195.195 494.82 195.086 495.992L195.074 496.191C195.074 496.613 195.223 496.961 195.52 497.234C195.816 497.508 196.223 497.645 196.738 497.645ZM212.184 490.496C211.723 490.434 211.316 490.402 210.965 490.402C209.684 490.402 208.844 490.836 208.445 491.703V500H205.059V487.32H208.258L208.352 488.832C209.031 487.668 209.973 487.086 211.176 487.086C211.551 487.086 211.902 487.137 212.23 487.238L212.184 490.496ZM218.465 484.203V487.32H220.633V489.805H218.465V496.133C218.465 496.602 218.555 496.938 218.734 497.141C218.914 497.344 219.258 497.445 219.766 497.445C220.141 497.445 220.473 497.418 220.762 497.363V499.93C220.098 500.133 219.414 500.234 218.711 500.234C216.336 500.234 215.125 499.035 215.078 496.637V489.805H213.227V487.32H215.078V484.203H218.465ZM228.355 500.234C226.496 500.234 224.98 499.664 223.809 498.523C222.645 497.383 222.062 495.863 222.062 493.965V493.637C222.062 492.363 222.309 491.227 222.801 490.227C223.293 489.219 223.988 488.445 224.887 487.906C225.793 487.359 226.824 487.086 227.98 487.086C229.715 487.086 231.078 487.633 232.07 488.727C233.07 489.82 233.57 491.371 233.57 493.379V494.762H225.496C225.605 495.59 225.934 496.254 226.48 496.754C227.035 497.254 227.734 497.504 228.578 497.504C229.883 497.504 230.902 497.031 231.637 496.086L233.301 497.949C232.793 498.668 232.105 499.23 231.238 499.637C230.371 500.035 229.41 500.234 228.355 500.234ZM227.969 489.828C227.297 489.828 226.75 490.055 226.328 490.508C225.914 490.961 225.648 491.609 225.531 492.453H230.242V492.184C230.227 491.434 230.023 490.855 229.633 490.449C229.242 490.035 228.688 489.828 227.969 489.828ZM234.977 493.566C234.977 491.59 235.418 490.016 236.301 488.844C237.191 487.672 238.406 487.086 239.945 487.086C241.18 487.086 242.199 487.547 243.004 488.469V482H246.402V500H243.344L243.18 498.652C242.336 499.707 241.25 500.234 239.922 500.234C238.43 500.234 237.23 499.648 236.324 498.477C235.426 497.297 234.977 495.66 234.977 493.566ZM238.363 493.812C238.363 495 238.57 495.91 238.984 496.543C239.398 497.176 240 497.492 240.789 497.492C241.836 497.492 242.574 497.051 243.004 496.168V491.164C242.582 490.281 241.852 489.84 240.812 489.84C239.18 489.84 238.363 491.164 238.363 493.812Z" fill="white"/>
    </g>
    <path d="M49.6 328C49.1333 328 48.7333 327.867 48.4 327.6C48.0667 327.267 47.9 326.867 47.9 326.4V255.7C47.9 255.1 48.0667 254.633 48.4 254.3C48.7333 253.967 49.1667 253.8 49.7 253.8H75.4C84.9333 253.8 92.2 255.467 97.2 258.8C102.267 262.067 104.8 266.867 104.8 273.2C104.8 277 103.767 280.233 101.7 282.9C99.7 285.5 96.3667 287.733 91.7 289.6C91.5 289.667 91.4 289.8 91.4 290C91.4 290.2 91.5 290.333 91.7 290.4C96.7667 291.933 100.5 294.133 102.9 297C105.367 299.8 106.6 303.467 106.6 308C106.6 321.333 96.5667 328 76.5 328H49.6ZM76.9 285.3C80.6333 285.3 83.7667 284.467 86.3 282.8C88.8333 281.067 90.1 278.433 90.1 274.9C90.1 271.367 88.8 268.667 86.2 266.8C83.6667 264.933 80.2 264 75.8 264H64.4C63.8 264 63.3667 264.133 63.1 264.4C62.8333 264.6 62.7 264.967 62.7 265.5V283.6C62.7 284.2 62.8 284.633 63 284.9C63.2 285.167 63.5333 285.3 64 285.3H76.9ZM76 317.8C81 317.8 84.7667 316.867 87.3 315C89.9 313.133 91.2 310.433 91.2 306.9C91.2 303.233 89.9 300.467 87.3 298.6C84.7 296.667 81.2333 295.7 76.9 295.7H64.5C63.8333 295.7 63.3667 295.833 63.1 296.1C62.8333 296.3 62.7 296.7 62.7 297.3V316.1C62.7 316.7 62.8 317.133 63 317.4C63.2 317.667 63.5333 317.8 64 317.8H76ZM145.384 329C140.251 329 135.684 327.867 131.684 325.6C127.684 323.267 124.584 320.033 122.384 315.9C120.184 311.767 119.084 307.067 119.084 301.8C119.084 296.4 120.218 291.6 122.484 287.4C124.751 283.133 127.884 279.833 131.884 277.5C135.884 275.167 140.418 274 145.484 274C150.618 274 155.184 275.2 159.184 277.6C163.184 279.933 166.284 283.2 168.484 287.4C170.684 291.6 171.784 296.367 171.784 301.7C171.784 306.967 170.651 311.667 168.384 315.8C166.184 319.933 163.084 323.167 159.084 325.5C155.084 327.833 150.518 329 145.384 329ZM145.484 320.1C149.751 320.1 152.984 318.5 155.184 315.3C157.451 312.1 158.584 307.5 158.584 301.5C158.584 295.433 157.451 290.767 155.184 287.5C152.918 284.233 149.684 282.6 145.484 282.6C141.284 282.6 138.018 284.233 135.684 287.5C133.418 290.767 132.284 295.433 132.284 301.5C132.284 307.5 133.418 312.1 135.684 315.3C138.018 318.5 141.284 320.1 145.484 320.1ZM209.248 329C204.114 329 199.548 327.867 195.548 325.6C191.548 323.267 188.448 320.033 186.248 315.9C184.048 311.767 182.948 307.067 182.948 301.8C182.948 296.4 184.081 291.6 186.348 287.4C188.614 283.133 191.748 279.833 195.748 277.5C199.748 275.167 204.281 274 209.348 274C214.481 274 219.048 275.2 223.048 277.6C227.048 279.933 230.148 283.2 232.348 287.4C234.548 291.6 235.648 296.367 235.648 301.7C235.648 306.967 234.514 311.667 232.248 315.8C230.048 319.933 226.948 323.167 222.948 325.5C218.948 327.833 214.381 329 209.248 329ZM209.348 320.1C213.614 320.1 216.848 318.5 219.048 315.3C221.314 312.1 222.448 307.5 222.448 301.5C222.448 295.433 221.314 290.767 219.048 287.5C216.781 284.233 213.548 282.6 209.348 282.6C205.148 282.6 201.881 284.233 199.548 287.5C197.281 290.767 196.148 295.433 196.148 301.5C196.148 307.5 197.281 312.1 199.548 315.3C201.881 318.5 205.148 320.1 209.348 320.1ZM251.311 328C250.644 328 250.178 327.867 249.911 327.6C249.644 327.333 249.511 326.867 249.511 326.2V276.7C249.511 275.567 249.978 275 250.911 275H260.811C261.744 275 262.211 275.5 262.211 276.5V281.7C262.211 282.1 262.311 282.333 262.511 282.4C262.711 282.467 262.978 282.367 263.311 282.1C266.311 279.367 269.144 277.333 271.811 276C274.478 274.6 277.311 273.9 280.311 273.9C283.911 273.9 286.944 274.767 289.411 276.5C291.878 278.167 293.578 280.367 294.511 283.1C294.644 283.3 294.811 283.4 295.011 283.4C295.278 283.4 295.578 283.233 295.911 282.9C301.844 276.967 307.744 274 313.611 274C318.344 274 322.078 275.4 324.811 278.2C327.544 281 328.911 284.867 328.911 289.8V325.9C328.911 327.3 328.211 328 326.811 328H317.611C317.011 328 316.578 327.867 316.311 327.6C316.044 327.333 315.911 326.867 315.911 326.2V291.8C315.911 289.2 315.244 287.2 313.911 285.8C312.578 284.333 310.644 283.6 308.111 283.6C306.044 283.6 304.044 284.167 302.111 285.3C300.178 286.367 298.444 287.667 296.911 289.2C296.111 290.067 295.711 291.033 295.711 292.1V325.9C295.711 327.3 295.011 328 293.611 328H284.411C283.278 328 282.711 327.4 282.711 326.2V291.8C282.711 289.2 282.044 287.2 280.711 285.8C279.444 284.333 277.511 283.6 274.911 283.6C272.711 283.6 270.644 284.133 268.711 285.2C266.844 286.267 264.778 288 262.511 290.4V326C262.511 326.733 262.344 327.267 262.011 327.6C261.678 327.867 261.078 328 260.211 328H251.311Z" fill="white"/>
    <g filter="url(#filter2_d_127_1433)">
      <rect x="21" y="547" width="333" height="62" rx="5" fill="#2C9CDB"/>
    </g>
    <path d="M164.84 579.754H162.039V586H158.523V568.938H164.863C166.879 568.938 168.434 569.387 169.527 570.285C170.621 571.184 171.168 572.453 171.168 574.094C171.168 575.258 170.914 576.23 170.406 577.012C169.906 577.785 169.145 578.402 168.121 578.863L171.812 585.836V586H168.039L164.84 579.754ZM162.039 576.906H164.875C165.758 576.906 166.441 576.684 166.926 576.238C167.41 575.785 167.652 575.164 167.652 574.375C167.652 573.57 167.422 572.938 166.961 572.477C166.508 572.016 165.809 571.785 164.863 571.785H162.039V576.906ZM181.223 584.711C180.387 585.727 179.23 586.234 177.754 586.234C176.395 586.234 175.355 585.844 174.637 585.062C173.926 584.281 173.562 583.137 173.547 581.629V573.32H176.934V581.512C176.934 582.832 177.535 583.492 178.738 583.492C179.887 583.492 180.676 583.094 181.105 582.297V573.32H184.504V586H181.316L181.223 584.711ZM190.633 586H187.234V568H190.633V586ZM199.27 586.234C197.41 586.234 195.895 585.664 194.723 584.523C193.559 583.383 192.977 581.863 192.977 579.965V579.637C192.977 578.363 193.223 577.227 193.715 576.227C194.207 575.219 194.902 574.445 195.801 573.906C196.707 573.359 197.738 573.086 198.895 573.086C200.629 573.086 201.992 573.633 202.984 574.727C203.984 575.82 204.484 577.371 204.484 579.379V580.762H196.41C196.52 581.59 196.848 582.254 197.395 582.754C197.949 583.254 198.648 583.504 199.492 583.504C200.797 583.504 201.816 583.031 202.551 582.086L204.215 583.949C203.707 584.668 203.02 585.23 202.152 585.637C201.285 586.035 200.324 586.234 199.27 586.234ZM198.883 575.828C198.211 575.828 197.664 576.055 197.242 576.508C196.828 576.961 196.562 577.609 196.445 578.453H201.156V578.184C201.141 577.434 200.938 576.855 200.547 576.449C200.156 576.035 199.602 575.828 198.883 575.828ZM213.285 582.496C213.285 582.082 213.078 581.758 212.664 581.523C212.258 581.281 211.602 581.066 210.695 580.879C207.68 580.246 206.172 578.965 206.172 577.035C206.172 575.91 206.637 574.973 207.566 574.223C208.504 573.465 209.727 573.086 211.234 573.086C212.844 573.086 214.129 573.465 215.09 574.223C216.059 574.98 216.543 575.965 216.543 577.176H213.156C213.156 576.691 213 576.293 212.688 575.98C212.375 575.66 211.887 575.5 211.223 575.5C210.652 575.5 210.211 575.629 209.898 575.887C209.586 576.145 209.43 576.473 209.43 576.871C209.43 577.246 209.605 577.551 209.957 577.785C210.316 578.012 210.918 578.211 211.762 578.383C212.605 578.547 213.316 578.734 213.895 578.945C215.684 579.602 216.578 580.738 216.578 582.355C216.578 583.512 216.082 584.449 215.09 585.168C214.098 585.879 212.816 586.234 211.246 586.234C210.184 586.234 209.238 586.047 208.41 585.672C207.59 585.289 206.945 584.77 206.477 584.113C206.008 583.449 205.773 582.734 205.773 581.969H208.984C209.016 582.57 209.238 583.031 209.652 583.352C210.066 583.672 210.621 583.832 211.316 583.832C211.965 583.832 212.453 583.711 212.781 583.469C213.117 583.219 213.285 582.895 213.285 582.496Z" fill="white"/>
    <g filter="url(#filter3_d_127_1433)">
      <rect x="21" y="633" width="333" height="62" rx="5" fill="#2CDBC2"/>
    </g>
    <path d="M152.371 667.523C152.371 666.859 152.137 666.352 151.668 666C151.199 665.641 150.355 665.266 149.137 664.875C147.918 664.477 146.953 664.086 146.242 663.703C144.305 662.656 143.336 661.246 143.336 659.473C143.336 658.551 143.594 657.73 144.109 657.012C144.633 656.285 145.379 655.719 146.348 655.312C147.324 654.906 148.418 654.703 149.629 654.703C150.848 654.703 151.934 654.926 152.887 655.371C153.84 655.809 154.578 656.43 155.102 657.234C155.633 658.039 155.898 658.953 155.898 659.977H152.383C152.383 659.195 152.137 658.59 151.645 658.16C151.152 657.723 150.461 657.504 149.57 657.504C148.711 657.504 148.043 657.688 147.566 658.055C147.09 658.414 146.852 658.891 146.852 659.484C146.852 660.039 147.129 660.504 147.684 660.879C148.246 661.254 149.07 661.605 150.156 661.934C152.156 662.535 153.613 663.281 154.527 664.172C155.441 665.062 155.898 666.172 155.898 667.5C155.898 668.977 155.34 670.137 154.223 670.98C153.105 671.816 151.602 672.234 149.711 672.234C148.398 672.234 147.203 671.996 146.125 671.52C145.047 671.035 144.223 670.375 143.652 669.539C143.09 668.703 142.809 667.734 142.809 666.633H146.336C146.336 668.516 147.461 669.457 149.711 669.457C150.547 669.457 151.199 669.289 151.668 668.953C152.137 668.609 152.371 668.133 152.371 667.523ZM163.902 672.234C162.043 672.234 160.527 671.664 159.355 670.523C158.191 669.383 157.609 667.863 157.609 665.965V665.637C157.609 664.363 157.855 663.227 158.348 662.227C158.84 661.219 159.535 660.445 160.434 659.906C161.34 659.359 162.371 659.086 163.527 659.086C165.262 659.086 166.625 659.633 167.617 660.727C168.617 661.82 169.117 663.371 169.117 665.379V666.762H161.043C161.152 667.59 161.48 668.254 162.027 668.754C162.582 669.254 163.281 669.504 164.125 669.504C165.43 669.504 166.449 669.031 167.184 668.086L168.848 669.949C168.34 670.668 167.652 671.23 166.785 671.637C165.918 672.035 164.957 672.234 163.902 672.234ZM163.516 661.828C162.844 661.828 162.297 662.055 161.875 662.508C161.461 662.961 161.195 663.609 161.078 664.453H165.789V664.184C165.773 663.434 165.57 662.855 165.18 662.449C164.789 662.035 164.234 661.828 163.516 661.828ZM175.105 656.203V659.32H177.273V661.805H175.105V668.133C175.105 668.602 175.195 668.938 175.375 669.141C175.555 669.344 175.898 669.445 176.406 669.445C176.781 669.445 177.113 669.418 177.402 669.363V671.93C176.738 672.133 176.055 672.234 175.352 672.234C172.977 672.234 171.766 671.035 171.719 668.637V661.805H169.867V659.32H171.719V656.203H175.105ZM183.215 656.203V659.32H185.383V661.805H183.215V668.133C183.215 668.602 183.305 668.938 183.484 669.141C183.664 669.344 184.008 669.445 184.516 669.445C184.891 669.445 185.223 669.418 185.512 669.363V671.93C184.848 672.133 184.164 672.234 183.461 672.234C181.086 672.234 179.875 671.035 179.828 668.637V661.805H177.977V659.32H179.828V656.203H183.215ZM190.844 672H187.445V659.32H190.844V672ZM187.246 656.039C187.246 655.531 187.414 655.113 187.75 654.785C188.094 654.457 188.559 654.293 189.145 654.293C189.723 654.293 190.184 654.457 190.527 654.785C190.871 655.113 191.043 655.531 191.043 656.039C191.043 656.555 190.867 656.977 190.516 657.305C190.172 657.633 189.715 657.797 189.145 657.797C188.574 657.797 188.113 657.633 187.762 657.305C187.418 656.977 187.246 656.555 187.246 656.039ZM196.762 659.32L196.867 660.785C197.773 659.652 198.988 659.086 200.512 659.086C201.855 659.086 202.855 659.48 203.512 660.27C204.168 661.059 204.504 662.238 204.52 663.809V672H201.133V663.891C201.133 663.172 200.977 662.652 200.664 662.332C200.352 662.004 199.832 661.84 199.105 661.84C198.152 661.84 197.438 662.246 196.961 663.059V672H193.574V659.32H196.762ZM206.605 665.566C206.605 663.621 207.066 662.055 207.988 660.867C208.918 659.68 210.168 659.086 211.738 659.086C213.129 659.086 214.211 659.562 214.984 660.516L215.125 659.32H218.195V671.578C218.195 672.688 217.941 673.652 217.434 674.473C216.934 675.293 216.227 675.918 215.312 676.348C214.398 676.777 213.328 676.992 212.102 676.992C211.172 676.992 210.266 676.805 209.383 676.43C208.5 676.062 207.832 675.586 207.379 675L208.879 672.938C209.723 673.883 210.746 674.355 211.949 674.355C212.848 674.355 213.547 674.113 214.047 673.629C214.547 673.152 214.797 672.473 214.797 671.59V670.91C214.016 671.793 212.988 672.234 211.715 672.234C210.191 672.234 208.957 671.641 208.012 670.453C207.074 669.258 206.605 667.676 206.605 665.707V665.566ZM209.992 665.812C209.992 666.961 210.223 667.863 210.684 668.52C211.145 669.168 211.777 669.492 212.582 669.492C213.613 669.492 214.352 669.105 214.797 668.332V663C214.344 662.227 213.613 661.84 212.605 661.84C211.793 661.84 211.152 662.172 210.684 662.836C210.223 663.5 209.992 664.492 209.992 665.812ZM227.676 668.496C227.676 668.082 227.469 667.758 227.055 667.523C226.648 667.281 225.992 667.066 225.086 666.879C222.07 666.246 220.562 664.965 220.562 663.035C220.562 661.91 221.027 660.973 221.957 660.223C222.895 659.465 224.117 659.086 225.625 659.086C227.234 659.086 228.52 659.465 229.48 660.223C230.449 660.98 230.934 661.965 230.934 663.176H227.547C227.547 662.691 227.391 662.293 227.078 661.98C226.766 661.66 226.277 661.5 225.613 661.5C225.043 661.5 224.602 661.629 224.289 661.887C223.977 662.145 223.82 662.473 223.82 662.871C223.82 663.246 223.996 663.551 224.348 663.785C224.707 664.012 225.309 664.211 226.152 664.383C226.996 664.547 227.707 664.734 228.285 664.945C230.074 665.602 230.969 666.738 230.969 668.355C230.969 669.512 230.473 670.449 229.48 671.168C228.488 671.879 227.207 672.234 225.637 672.234C224.574 672.234 223.629 672.047 222.801 671.672C221.98 671.289 221.336 670.77 220.867 670.113C220.398 669.449 220.164 668.734 220.164 667.969H223.375C223.406 668.57 223.629 669.031 224.043 669.352C224.457 669.672 225.012 669.832 225.707 669.832C226.355 669.832 226.844 669.711 227.172 669.469C227.508 669.219 227.676 668.895 227.676 668.496Z" fill="white"/>
    <path d="M304.916 61.7771H267.086V61.7776H304.916V61.7771Z" fill="#C42126"/>
    <path d="M302.944 51.405H269.056V51.4055H302.944V51.405Z" fill="#C42126"/>
    <path d="M304.29 54.8618H267.708V54.8624H304.29V54.8618Z" fill="#C42126"/>
    <path d="M275.166 75.6052H296.834L296.835 75.604H275.165L275.166 75.6052Z" fill="#C42126"/>
    <path d="M286 41C285.627 41 285.256 41.0135 284.889 41.0345H287.111C286.743 41.0135 286.373 41 286 41Z" fill="#C42126"/>
    <path d="M304.921 58.3195H267.078V58.32H304.921V58.3195Z" fill="#C42126"/>
    <path d="M291.615 47.9481H300.688C299.61 46.6362 298.358 45.4749 296.97 44.4917H290.158C290.721 45.4835 291.206 46.6538 291.615 47.9481Z" fill="#E7E7E7"/>
    <path d="M290.158 44.4917H296.97C294.154 42.4958 290.773 41.246 287.111 41.0345H286.526C288.249 41.2514 289.041 42.527 290.158 44.4917Z" fill="#DC3027"/>
    <path d="M304.291 54.8621C303.954 53.6573 303.501 52.5014 302.944 51.4058H292.506C292.718 52.5155 292.884 53.6747 293.008 54.8621H304.291Z" fill="#E7E7E7"/>
    <path d="M291.919 51.4052H302.943C302.315 50.1695 301.56 49.01 300.688 47.9483H291.058C291.397 49.0232 291.686 50.1828 291.919 51.4052Z" fill="#DC3027"/>
    <path d="M293.408 61.7763H304.914C304.969 61.1916 305 60.5991 305 60.0003C305 59.4336 304.97 58.8741 304.921 58.3197H293.41C293.448 59.4693 293.447 60.6273 293.408 61.7763Z" fill="#E7E7E7"/>
    <path d="M304.922 58.3191C304.818 57.132 304.604 55.977 304.291 54.8628H292.523C292.641 55.9946 292.719 57.1527 292.758 58.3191H304.922Z" fill="#DC3027"/>
    <path d="M292.308 68.6904H302.894C303.459 67.596 303.919 66.4392 304.264 65.2335H292.819C292.693 66.4227 292.522 67.5816 292.308 68.6904Z" fill="#E7E7E7"/>
    <path d="M304.264 65.2333C304.583 64.1194 304.804 62.9644 304.914 61.7769H293.049C293.009 62.9442 292.928 64.102 292.808 65.2333H304.264Z" fill="#DC3027"/>
    <path d="M296.835 75.604C298.243 74.6248 299.513 73.4622 300.608 72.1476H291.693C291.276 73.4472 290.782 74.6157 290.208 75.604H296.835Z" fill="#E7E7E7"/>
    <path d="M291.358 72.1474H300.608C301.49 71.0869 302.256 69.9274 302.894 68.6905H292.23C291.993 69.9138 291.702 71.0739 291.358 72.1474Z" fill="#DC3027"/>
    <path d="M285.311 78.9865C285.273 78.9853 285.234 78.9836 285.196 78.9824C285.234 78.9835 285.273 78.9853 285.311 78.9865Z" fill="#DC3027"/>
    <path d="M286 79C290.028 79 293.76 77.7427 296.834 75.6052H289.958C288.737 77.7079 287.932 79 286 79Z" fill="#DC3027"/>
    <path d="M286 79C285.769 79 285.54 78.9946 285.311 78.9865C285.542 78.9943 285.772 79 286 79Z" fill="#C42126"/>
    <path d="M290.787 44.4917H275.03C273.642 45.4749 272.39 46.6361 271.312 47.9481H292.244C291.835 46.6538 291.351 45.4835 290.787 44.4917Z" fill="#F3F4F5"/>
    <path d="M275.03 44.4917H290.787C289.67 42.527 288.249 41.2514 286.526 41.0345H284.889C281.227 41.246 277.846 42.4958 275.03 44.4917Z" fill="#E73625"/>
    <path d="M267.709 54.8621H293.607C293.484 53.6744 293.317 52.5155 293.105 51.4058H269.056C268.499 52.5015 268.046 53.6573 267.709 54.8621Z" fill="#F3F4F5"/>
    <path d="M271.312 47.9481C270.44 49.0098 269.684 50.1692 269.057 51.405H293.105C292.872 50.1828 292.584 49.0233 292.244 47.9481C292.244 47.9481 271.312 47.9481 271.312 47.9481Z" fill="#E73625"/>
    <path d="M267 60.0003C267 60.5991 267.031 61.1916 267.086 61.7763H293.839C293.879 60.6272 293.88 59.4695 293.842 58.3199H267.078C267.03 58.8741 267 59.4336 267 60.0003Z" fill="#F3F4F5"/>
    <path d="M267.078 58.3191H293.842C293.804 57.1524 293.725 55.9947 293.607 54.8628H267.708C267.396 55.9772 267.182 57.132 267.078 58.3191Z" fill="#E73625"/>
    <path d="M293.598 65.2332H267.736C268.081 66.4392 268.541 67.5957 269.106 68.6902H293.086C293.301 67.5816 293.471 66.4227 293.598 65.2332Z" fill="#F3F4F5"/>
    <path d="M267.736 65.2333H293.598C293.718 64.102 293.799 62.9439 293.839 61.7769H267.086C267.196 62.9646 267.417 64.1194 267.736 65.2333Z" fill="#E73625"/>
    <path d="M275.165 75.604H290.729C291.303 74.6154 291.798 73.4472 292.214 72.1476H271.392C272.487 73.4622 273.757 74.6248 275.165 75.604Z" fill="#F3F4F5"/>
    <path d="M269.106 68.6904C269.744 69.9273 270.51 71.0868 271.392 72.1473H292.214C292.558 71.0739 292.849 69.9138 293.086 68.6904H269.106Z" fill="#E73625"/>
    <path d="M285.196 78.9823C285.234 78.9835 285.273 78.9852 285.311 78.9864C285.54 78.9945 285.769 78.9999 286 78.9999C287.932 78.9999 289.508 77.7078 290.728 75.6051H275.166C278.034 77.5996 281.476 78.8272 285.196 78.9823Z" fill="#E73625"/>
    <path d="M285.607 41.0099C275.87 41.2079 267.935 48.7256 267.081 58.2881H285.607V41.0099H285.607Z" fill="#283991"/>
    <path d="M270.802 51.7649L271.091 52.6562H272.029L271.27 53.2073L271.56 54.0993L270.802 53.5478L270.044 54.0993L270.333 53.2073L269.574 52.6562H270.512L270.802 51.7649Z" fill="#EFEFEF"/>
    <path d="M270.802 54.9138L271.091 55.8056H272.029L271.27 56.3568L271.56 57.2487L270.802 56.6972L270.044 57.2487L270.333 56.3568L269.574 55.8056H270.512L270.802 54.9138Z" fill="#EFEFEF"/>
    <path d="M273.951 47.0405L274.241 47.9321H275.178L274.42 48.4836L274.709 49.3748L273.951 48.824L273.193 49.3748L273.482 48.4836L272.723 47.9321H273.661L273.951 47.0405Z" fill="#EFEFEF"/>
    <path d="M273.951 50.1899L274.241 51.0815H275.178L274.42 51.6324L274.709 52.5243L273.951 51.9735L273.193 52.5243L273.482 51.6324L272.723 51.0815H273.661L273.951 50.1899Z" fill="#EFEFEF"/>
    <path d="M273.951 53.3393L274.241 54.2312H275.178L274.42 54.7817L274.709 55.6737L273.951 55.1223L273.193 55.6737L273.482 54.7817L272.723 54.2312H273.661L273.951 53.3393Z" fill="#EFEFEF"/>
    <path d="M268.411 55.6737L268.121 54.7817L268.879 54.2309H267.942L267.921 54.1659C267.818 54.4842 267.725 54.8064 267.639 55.1322L267.653 55.1223L268.411 55.6737Z" fill="#EFEFEF"/>
    <path d="M270.044 50.9499L270.802 50.3985L271.56 50.9499L271.27 50.058L272.029 49.5066H271.091L270.801 48.6153L270.512 49.5066H270.166C270.102 49.6038 270.04 49.7016 269.978 49.8003L270.333 50.058L270.044 50.9499Z" fill="#EFEFEF"/>
    <path d="M273.951 45.6746L274.709 46.2254L274.42 45.3342L275.178 44.7828H274.636C274.176 45.1266 273.733 45.4905 273.306 45.8745L273.192 46.2254L273.951 45.6746Z" fill="#EFEFEF"/>
    <path d="M276.342 44.651L277.1 44.0997L277.859 44.651L277.569 43.7591L278.327 43.2083H277.39L277.35 43.0883C277.033 43.2506 276.718 43.4194 276.411 43.5992L276.631 43.759L276.342 44.651Z" fill="#EFEFEF"/>
    <path d="M277.1 45.4661L277.39 46.3572H278.327L277.569 46.9085L277.859 47.8005L277.1 47.249L276.342 47.8005L276.632 46.9085L275.873 46.3572H276.811L277.1 45.4661Z" fill="#EFEFEF"/>
    <path d="M277.1 48.6155L277.39 49.5066H278.327L277.569 50.058L277.859 50.9499L277.1 50.3984L276.342 50.9499L276.632 50.058L275.873 49.5066H276.811L277.1 48.6155Z" fill="#EFEFEF"/>
    <path d="M277.1 51.7649L277.39 52.6562H278.327L277.569 53.2073L277.859 54.0993L277.1 53.5478L276.342 54.0993L276.632 53.2073L275.873 52.6562H276.811L277.1 51.7649Z" fill="#EFEFEF"/>
    <path d="M277.1 54.9138L277.39 55.8056H278.327L277.569 56.3568L277.859 57.2487L277.1 56.6972L276.342 57.2487L276.632 56.3568L275.873 55.8056H276.811L277.1 54.9138Z" fill="#EFEFEF"/>
    <path d="M280.25 43.8911L280.539 44.7827H281.477L280.719 45.3341L281.008 46.2254L280.25 45.6746L279.491 46.2254L279.781 45.3341L279.022 44.7827H279.96L280.25 43.8911Z" fill="#EFEFEF"/>
    <path d="M280.25 47.0405L280.539 47.9321H281.477L280.719 48.4836L281.008 49.3748L280.25 48.824L279.491 49.3748L279.781 48.4836L279.022 47.9321H279.96L280.25 47.0405Z" fill="#EFEFEF"/>
    <path d="M280.25 50.1899L280.539 51.0815H281.477L280.719 51.6324L281.008 52.5243L280.25 51.9735L279.491 52.5243L279.781 51.6324L279.022 51.0815H279.96L280.25 50.1899Z" fill="#EFEFEF"/>
    <path d="M280.25 53.3393L280.539 54.2312H281.477L280.719 54.7817L281.008 55.6737L280.25 55.1223L279.491 55.6737L279.781 54.7817L279.022 54.2312H279.96L280.25 53.3393Z" fill="#EFEFEF"/>
    <path d="M283.399 42.3167L283.689 43.2083H284.626L283.868 43.7591L284.157 44.6511L283.399 44.0996L282.641 44.6511L282.93 43.7591L282.172 43.2083H283.109L283.399 42.3167Z" fill="#EFEFEF"/>
    <path d="M283.399 45.4661L283.689 46.3572H284.626L283.868 46.9085L284.157 47.8005L283.399 47.249L282.641 47.8005L282.93 46.9085L282.172 46.3572H283.109L283.399 45.4661Z" fill="#EFEFEF"/>
    <path d="M283.399 48.6155L283.689 49.5066H284.626L283.868 50.058L284.157 50.9499L283.399 50.3984L282.641 50.9499L282.93 50.058L282.172 49.5066H283.109L283.399 48.6155Z" fill="#EFEFEF"/>
    <path d="M283.399 51.7649L283.689 52.6562H284.626L283.868 53.2073L284.157 54.0993L283.399 53.5478L282.641 54.0993L282.93 53.2073L282.172 52.6562H283.109L283.399 51.7649Z" fill="#EFEFEF"/>
    <path d="M283.399 54.9138L283.689 55.8056H284.626L283.868 56.3568L284.157 57.2487L283.399 56.6972L282.641 57.2487L282.93 56.3568L282.172 55.8056H283.109L283.399 54.9138Z" fill="#EFEFEF"/>
    <path d="M335.001 79.0003C345.494 79.0003 354.001 70.4941 354.001 60.0011C354.001 49.5082 345.494 41.002 335.001 41.002C324.508 41.002 316.002 49.5082 316.002 60.0011C316.002 70.4941 324.508 79.0003 335.001 79.0003Z" fill="white"/>
    <path d="M352.914 53.6649H341.207C341.716 57.7237 341.719 62.1958 341.217 66.2595H352.939C353.623 64.2991 353.999 62.1937 353.999 60.0001C354 57.7777 353.615 55.6465 352.914 53.6649Z" fill="#2B479D"/>
    <path d="M341.207 53.665H352.914C352.912 53.659 352.91 53.6539 352.908 53.6484C350.476 46.792 344.221 41.7475 336.706 41.0779C339.614 42.6721 340.464 47.7229 341.207 53.665Z" fill="#EFECEC"/>
    <path d="M336.707 78.9211C344.235 78.2502 350.499 73.1883 352.921 66.3135C352.928 66.2952 352.933 66.2772 352.94 66.2596H341.218C340.48 72.2338 339.627 77.3202 336.707 78.9211Z" fill="#E63026"/>
    <path d="M316 60C316 62.1939 316.377 64.299 317.06 66.2595H342.195C342.698 62.1954 342.694 57.7236 342.186 53.6649H317.086C316.385 55.6465 316 57.7777 316 60Z" fill="#3757A6"/>
    <path d="M317.092 53.6485C317.09 53.6539 317.088 53.659 317.086 53.665H342.186C341.442 47.7229 339.614 42.6722 336.706 41.078C336.144 41.0282 335.575 41 335 41C326.734 40.9999 319.706 46.2787 317.092 53.6485Z" fill="#EFEFEF"/>
    <path d="M342.195 66.2595H317.06C317.067 66.2772 317.073 66.2952 317.079 66.3135C319.682 73.7021 326.721 78.9996 335 78.9996C335.575 78.9996 336.144 78.9713 336.706 78.921C339.627 77.3202 341.458 72.2337 342.195 66.2595Z" fill="#E73B36"/>
    <circle cx="286" cy="60" r="20" stroke="#2C9CDB" stroke-width="2"/>
  </g>
  <defs>
    <filter id="filter0_d_127_1433" x="17" y="461" width="341" height="70" filterUnits="userSpaceOnUse" color-interpolation-filters="sRGB">
      <feFlood flood-opacity="0" result="BackgroundImageFix"/>
      <feColorMatrix in="SourceAlpha" type="matrix" values="0 0 0 0 0 0 0 0 0 0 0 0 0 0 0 0 0 0 127 0" result="hardAlpha"/>
      <feOffset dy="4"/>
      <feGaussianBlur stdDeviation="2"/>
      <feComposite in2="hardAlpha" operator="out"/>
      <feColorMatrix type="matrix" values="0 0 0 0 0 0 0 0 0 0 0 0 0 0 0 0 0 0 0.25 0"/>
      <feBlend mode="normal" in2="BackgroundImageFix" result="effect1_dropShadow_127_1433"/>
      <feBlend mode="normal" in="SourceGraphic" in2="effect1_dropShadow_127_1433" result="shape"/>
    </filter>
    <filter id="filter1_d_127_1433" x="17" y="461" width="341" height="70" filterUnits="userSpaceOnUse" color-interpolation-filters="sRGB">
      <feFlood flood-opacity="0" result="BackgroundImageFix"/>
      <feColorMatrix in="SourceAlpha" type="matrix" values="0 0 0 0 0 0 0 0 0 0 0 0 0 0 0 0 0 0 127 0" result="hardAlpha"/>
      <feOffset dy="4"/>
      <feGaussianBlur stdDeviation="2"/>
      <feColorMatrix type="matrix" values="0 0 0 0 0 0 0 0 0 0 0 0 0 0 0 0 0 0 0.25 0"/>
      <feBlend mode="normal" in2="BackgroundImageFix" result="effect1_dropShadow_127_1433"/>
      <feBlend mode="normal" in="SourceGraphic" in2="effect1_dropShadow_127_1433" result="shape"/>
    </filter>
    <filter id="filter2_d_127_1433" x="17" y="547" width="341" height="70" filterUnits="userSpaceOnUse" color-interpolation-filters="sRGB">
      <feFlood flood-opacity="0" result="BackgroundImageFix"/>
      <feColorMatrix in="SourceAlpha" type="matrix" values="0 0 0 0 0 0 0 0 0 0 0 0 0 0 0 0 0 0 127 0" result="hardAlpha"/>
      <feOffset dy="4"/>
      <feGaussianBlur stdDeviation="2"/>
      <feColorMatrix type="matrix" values="0 0 0 0 0 0 0 0 0 0 0 0 0 0 0 0 0 0 0.25 0"/>
      <feBlend mode="normal" in2="BackgroundImageFix" result="effect1_dropShadow_127_1433"/>
      <feBlend mode="normal" in="SourceGraphic" in2="effect1_dropShadow_127_1433" result="shape"/>
    </filter>
    <filter id="filter3_d_127_1433" x="17" y="633" width="341" height="70" filterUnits="userSpaceOnUse" color-interpolation-filters="sRGB">
      <feFlood flood-opacity="0" result="BackgroundImageFix"/>
      <feColorMatrix in="SourceAlpha" type="matrix" values="0 0 0 0 0 0 0 0 0 0 0 0 0 0 0 0 0 0 127 0" result="hardAlpha"/>
      <feOffset dy="4"/>
      <feGaussianBlur stdDeviation="2"/>
      <feColorMatrix type="matrix" values="0 0 0 0 0 0 0 0 0 0 0 0 0 0 0 0 0 0 0.25 0"/>
      <feBlend mode="normal" in2="BackgroundImageFix" result="effect1_dropShadow_127_1433"/>
      <feBlend mode="normal" in="SourceGraphic" in2="effect1_dropShadow_127_1433" result="shape"/>
    </filter>
    <linearGradient id="paint0_linear_127_1433" x1="187" y1="812" x2="187" y2="-4.42082e-06" gradientUnits="userSpaceOnUse">
      <stop stop-color="#515860"/>
      <stop offset="1" stop-color="#18222D"/>
    </linearGradient>
    <linearGradient id="paint1_linear_127_1433" x1="-1.96775" y1="-214.957" x2="-15.1368" y2="-214.832" gradientUnits="userSpaceOnUse">
      <stop stop-color="#8468F5"/>
      <stop offset="1" stop-color="#EC74E7"/>
    </linearGradient>
    <linearGradient id="paint2_linear_127_1433" x1="10.6466" y1="-433.273" x2="-11.5226" y2="-433.16" gradientUnits="userSpaceOnUse">
      <stop stop-color="#8327AE"/>
      <stop offset="1" stop-color="#2C9CDB"/>
    </linearGradient>
    <linearGradient id="paint3_linear_127_1433" x1="0.0446957" y1="-109.813" x2="-20.3541" y2="-108.847" gradientUnits="userSpaceOnUse">
      <stop stop-color="#8327AE"/>
      <stop offset="1" stop-color="#2C9CDB"/>
    </linearGradient>
    <linearGradient id="paint4_linear_127_1433" x1="-1.20733" y1="-213.156" x2="-9.28775" y2="-213.108" gradientUnits="userSpaceOnUse">
      <stop stop-color="#8468F5"/>
      <stop offset="1" stop-color="#EC74E7"/>
    </linearGradient>
    <linearGradient id="paint5_linear_127_1433" x1="-1.20733" y1="-213.156" x2="-9.28775" y2="-213.108" gradientUnits="userSpaceOnUse">
      <stop stop-color="#8468F5"/>
      <stop offset="1" stop-color="#EC74E7"/>
    </linearGradient>
    <linearGradient id="paint6_linear_127_1433" x1="-1.20733" y1="-213.156" x2="-9.28775" y2="-213.108" gradientUnits="userSpaceOnUse">
      <stop stop-color="#8468F5"/>
      <stop offset="1" stop-color="#EC74E7"/>
    </linearGradient>
    <linearGradient id="paint7_linear_127_1433" x1="-1.20733" y1="-88.4464" x2="-9.28639" y2="-88.3316" gradientUnits="userSpaceOnUse">
      <stop stop-color="#8468F5"/>
      <stop offset="1" stop-color="#EC74E7"/>
    </linearGradient>
    <linearGradient id="paint8_linear_127_1433" x1="-1.70624" y1="-66.3348" x2="-13.118" y2="-66.0293" gradientUnits="userSpaceOnUse">
      <stop stop-color="#8468F5"/>
      <stop offset="1" stop-color="#EC74E7"/>
    </linearGradient>
    <linearGradient id="paint9_linear_127_1433" x1="-1.99269" y1="-213.156" x2="-15.3286" y2="-213.026" gradientUnits="userSpaceOnUse">
      <stop stop-color="#8468F5"/>
      <stop offset="1" stop-color="#EC74E7"/>
    </linearGradient>
    <linearGradient id="paint10_linear_127_1433" x1="-1.20733" y1="-213.156" x2="-9.28775" y2="-213.108" gradientUnits="userSpaceOnUse">
      <stop stop-color="#8468F5"/>
      <stop offset="1" stop-color="#EC74E7"/>
    </linearGradient>
    <linearGradient id="paint11_linear_127_1433" x1="-2.98904" y1="-213.156" x2="-22.9906" y2="-212.864" gradientUnits="userSpaceOnUse">
      <stop stop-color="#8468F5"/>
      <stop offset="1" stop-color="#EC74E7"/>
    </linearGradient>
    <linearGradient id="paint12_linear_127_1433" x1="-1.20733" y1="-213.156" x2="-9.28775" y2="-213.108" gradientUnits="userSpaceOnUse">
      <stop stop-color="#8468F5"/>
      <stop offset="1" stop-color="#EC74E7"/>
    </linearGradient>
    <linearGradient id="paint13_linear_127_1433" x1="-1.20733" y1="-213.156" x2="-9.28775" y2="-213.108" gradientUnits="userSpaceOnUse">
      <stop stop-color="#8468F5"/>
      <stop offset="1" stop-color="#EC74E7"/>
    </linearGradient>
    <linearGradient id="paint14_linear_127_1433" x1="-1.20733" y1="-213.156" x2="-9.28775" y2="-213.108" gradientUnits="userSpaceOnUse">
      <stop stop-color="#8468F5"/>
      <stop offset="1" stop-color="#EC74E7"/>
    </linearGradient>
    <linearGradient id="paint15_linear_127_1433" x1="-1.20733" y1="-88.4464" x2="-9.28639" y2="-88.3316" gradientUnits="userSpaceOnUse">
      <stop stop-color="#8468F5"/>
      <stop offset="1" stop-color="#EC74E7"/>
    </linearGradient>
    <linearGradient id="paint16_linear_127_1433" x1="-1.99269" y1="-213.156" x2="-15.3286" y2="-213.026" gradientUnits="userSpaceOnUse">
      <stop stop-color="#8468F5"/>
      <stop offset="1" stop-color="#EC74E7"/>
    </linearGradient>
    <linearGradient id="paint17_linear_127_1433" x1="10.6466" y1="-433.273" x2="-11.5226" y2="-433.16" gradientUnits="userSpaceOnUse">
      <stop stop-color="#8327AE"/>
      <stop offset="1" stop-color="#2C9CDB"/>
    </linearGradient>
    <linearGradient id="paint18_linear_127_1433" x1="10.6466" y1="-433.273" x2="-11.5226" y2="-433.16" gradientUnits="userSpaceOnUse">
      <stop stop-color="#8327AE"/>
      <stop offset="1" stop-color="#2C9CDB"/>
    </linearGradient>
    <linearGradient id="paint19_linear_127_1433" x1="10.6466" y1="-433.273" x2="-11.5226" y2="-433.16" gradientUnits="userSpaceOnUse">
      <stop stop-color="#8327AE"/>
      <stop offset="1" stop-color="#2C9CDB"/>
    </linearGradient>
    <linearGradient id="paint20_linear_127_1433" x1="0.0446957" y1="-109.813" x2="-20.3541" y2="-108.847" gradientUnits="userSpaceOnUse">
      <stop stop-color="#8327AE"/>
      <stop offset="1" stop-color="#2C9CDB"/>
    </linearGradient>
    <linearGradient id="paint21_linear_127_1433" x1="-1.20733" y1="-213.156" x2="-9.28775" y2="-213.108" gradientUnits="userSpaceOnUse">
      <stop stop-color="#8468F5"/>
      <stop offset="1" stop-color="#EC74E7"/>
    </linearGradient>
    <linearGradient id="paint22_linear_127_1433" x1="10.6466" y1="-433.273" x2="-11.5226" y2="-433.16" gradientUnits="userSpaceOnUse">
      <stop stop-color="#8327AE"/>
      <stop offset="1" stop-color="#2C9CDB"/>
    </linearGradient>
    <linearGradient id="paint23_linear_127_1433" x1="-1.20733" y1="-213.156" x2="-9.28775" y2="-213.108" gradientUnits="userSpaceOnUse">
      <stop stop-color="#8468F5"/>
      <stop offset="1" stop-color="#EC74E7"/>
    </linearGradient>
    <linearGradient id="paint24_linear_127_1433" x1="-1.20733" y1="-213.156" x2="-9.28775" y2="-213.108" gradientUnits="userSpaceOnUse">
      <stop stop-color="#8468F5"/>
      <stop offset="1" stop-color="#EC74E7"/>
    </linearGradient>
    <linearGradient id="paint25_linear_127_1433" x1="-1.99269" y1="-213.156" x2="-15.3286" y2="-213.026" gradientUnits="userSpaceOnUse">
      <stop stop-color="#8468F5"/>
      <stop offset="1" stop-color="#EC74E7"/>
    </linearGradient>
    <linearGradient id="paint26_linear_127_1433" x1="-1.20733" y1="-213.156" x2="-9.28775" y2="-213.108" gradientUnits="userSpaceOnUse">
      <stop stop-color="#8468F5"/>
      <stop offset="1" stop-color="#EC74E7"/>
    </linearGradient>
    <linearGradient id="paint27_linear_127_1433" x1="-2.98904" y1="-213.156" x2="-22.9906" y2="-212.864" gradientUnits="userSpaceOnUse">
      <stop stop-color="#8468F5"/>
      <stop offset="1" stop-color="#EC74E7"/>
    </linearGradient>
    <linearGradient id="paint28_linear_127_1433" x1="-1.20733" y1="-213.156" x2="-9.28775" y2="-213.108" gradientUnits="userSpaceOnUse">
      <stop stop-color="#8468F5"/>
      <stop offset="1" stop-color="#EC74E7"/>
    </linearGradient>
    <linearGradient id="paint29_linear_127_1433" x1="-2.98904" y1="-213.156" x2="-22.9906" y2="-212.864" gradientUnits="userSpaceOnUse">
      <stop stop-color="#8468F5"/>
      <stop offset="1" stop-color="#EC74E7"/>
    </linearGradient>
    <clipPath id="clip0_127_1433">
      <rect width="375" height="812" fill="white"/>
    </clipPath>
  </defs>
</svg>
